<?xml version="1.0" encoding="utf-8"?>
<!-- Generator: Adobe Illustrator 22.1.0, SVG Export Plug-In . SVG Version: 6.00 Build 0)  -->
<svg version="1.1" xmlns="http://www.w3.org/2000/svg" xmlns:xlink="http://www.w3.org/1999/xlink" x="0px" y="0px"
	 viewBox="0 0 100 100" style="enable-background:new 0 0 100 100;" xml:space="preserve">
<style type="text/css">
	.st0{display:none;}
	.st1{display:inline;}
	.st2{fill:none;stroke:#D1D3D4;stroke-width:0.35;stroke-miterlimit:10;}
	.st3{fill:none;stroke:url(#SVGID_1_);stroke-width:8;stroke-linecap:round;stroke-linejoin:round;stroke-miterlimit:10;}
</style>
<g id="grid_-_does_not_print" class="st0">
	<g class="st1">
		<rect x="0" class="st2" width="100" height="100"/>
		<line class="st2" x1="7.1" y1="0" x2="7.1" y2="100"/>
		<line class="st2" x1="14.3" y1="0" x2="14.3" y2="100"/>
		<line class="st2" x1="21.4" y1="0" x2="21.4" y2="100"/>
		<line class="st2" x1="28.6" y1="0" x2="28.6" y2="100"/>
		<line class="st2" x1="35.7" y1="0" x2="35.7" y2="100"/>
		<line class="st2" x1="42.9" y1="0" x2="42.9" y2="100"/>
		<line class="st2" x1="50" y1="0" x2="50" y2="100"/>
		<line class="st2" x1="57.1" y1="0" x2="57.1" y2="100"/>
		<line class="st2" x1="64.3" y1="0" x2="64.3" y2="100"/>
		<line class="st2" x1="71.4" y1="0" x2="71.4" y2="100"/>
		<line class="st2" x1="78.6" y1="0" x2="78.6" y2="100"/>
		<line class="st2" x1="85.7" y1="0" x2="85.7" y2="100"/>
		<line class="st2" x1="92.9" y1="0" x2="92.9" y2="100"/>
		<line class="st2" x1="100" y1="7.1" x2="0" y2="7.1"/>
		<line class="st2" x1="100" y1="14.3" x2="0" y2="14.3"/>
		<line class="st2" x1="100" y1="21.4" x2="0" y2="21.4"/>
		<line class="st2" x1="100" y1="28.6" x2="0" y2="28.6"/>
		<line class="st2" x1="100" y1="35.7" x2="0" y2="35.7"/>
		<line class="st2" x1="100" y1="42.9" x2="0" y2="42.9"/>
		<line class="st2" x1="100" y1="50" x2="0" y2="50"/>
		<line class="st2" x1="100" y1="57.1" x2="0" y2="57.1"/>
		<line class="st2" x1="100" y1="64.3" x2="0" y2="64.3"/>
		<line class="st2" x1="100" y1="71.4" x2="0" y2="71.4"/>
		<line class="st2" x1="100" y1="78.6" x2="0" y2="78.6"/>
		<line class="st2" x1="100" y1="85.7" x2="0" y2="85.7"/>
		<line class="st2" x1="100" y1="92.9" x2="0" y2="92.9"/>
	</g>
</g>
<g id="final_icon">
	<linearGradient id="SVGID_1_" gradientUnits="userSpaceOnUse" x1="5.3807" y1="4.1692" x2="91.8361" y2="90.6246">
		<stop  offset="0.12" style="stop-color:#00AAF4"/>
		<stop  offset="0.88" style="stop-color:#00D258"/>
	</linearGradient>
	<path class="st3" d="M23.1,27.3l68.9,0c3.6,0,4.3,2.6,3.9,4.9c-2.5,11.9-7.5,34.6-7.5,34.6l-56.7,0 M27.3,47.1h65.3 M34.5,82.2
		c-3.8,0-6.9,3.1-6.9,6.9c0,3.8,3.1,6.9,6.9,6.9c3.8,0,6.9-3.1,6.9-6.9C41.4,85.3,38.3,82.2,34.5,82.2z M78,82.2
		c-3.8,0-6.9,3.1-6.9,6.9c0,3.8,3.1,6.9,6.9,6.9c3.8,0,6.9-3.1,6.9-6.9C84.8,85.3,81.8,82.2,78,82.2z M4,11.2c0,0,5.7,0,10.2,0
		c3.1,0,5.8,2,6.5,5.2C22,22.3,32,69.8,33.6,77.5c0.7,3.3,3.2,4.7,6.1,4.7c5.9,0,38.2,0,38.2,0"/>
</g>
</svg>
