<?xml version="1.0" encoding="utf-8"?>
<!-- Svg Vector Icons : http://www.onlinewebfonts.com/icon -->
<!DOCTYPE svg PUBLIC "-//W3C//DTD SVG 1.1//EN" "http://www.w3.org/Graphics/SVG/1.1/DTD/svg11.dtd">
<svg version="1.1" xmlns="http://www.w3.org/2000/svg" xmlns:xlink="http://www.w3.org/1999/xlink" x="0px" y="0px" viewBox="0 0 1000 1000" enable-background="new 0 0 1000 1000" xml:space="preserve">
<metadata> Svg Vector Icons : http://www.onlinewebfonts.com/icon </metadata>
<g><path d="M447.8,565c-15.1,0-29.2-5.9-39.9-16.5L187.5,328c-7.9-7.9-12.2-18.3-12.2-29.5c0-11.1,4.3-21.6,12.2-29.5c7.9-7.9,18.4-12.2,29.5-12.2c11.1,0,21.6,4.3,29.5,12.2l201.4,201.4L876.4,42c7.9-7.9,18.4-12.2,29.5-12.2s21.6,4.3,29.5,12.2c16.2,16.3,16.2,42.7,0,59L487.7,548.5C477.1,559.2,462.9,565,447.8,565z"/><path d="M77.7,831.8c-18.1,0-35.1-7-47.8-19.8C17,799.2,10,782.2,10,764.1V77.7c0-18.1,7-35,19.8-47.8c12.8-12.8,29.8-19.8,47.8-19.8h475.8c23,0,41.7,18.7,41.7,41.7c0,23-18.7,41.7-41.7,41.7H93.4v654.9h626.2V446.5c0-23.2,18.9-42.1,42.2-42.1c23.2,0,42.2,18.9,42.2,42.1v317.7c0,18.1-7,35.1-19.8,47.8c-12.8,12.8-29.8,19.8-47.8,19.8H77.7z"/><path d="M288.2,989.9c-23,0-41.7-18.7-41.7-41.7c0-23,18.7-41.7,41.7-41.7l618.1-0.4v-539c0-23,18.7-41.7,41.7-41.7c11.3,0,21.9,4.3,29.8,12.2c7.9,7.9,12.2,18.4,12.2,29.5l-0.6,562.5c0,32.9-26.9,59.8-59.8,59.8C929.6,989.5,288.2,989.9,288.2,989.9z"/></g>
</svg>