<?xml version="1.0" encoding="utf-8"?>
<!-- Svg Vector Icons : http://www.onlinewebfonts.com/icon -->
<!DOCTYPE svg PUBLIC "-//W3C//DTD SVG 1.1//EN" "http://www.w3.org/Graphics/SVG/1.1/DTD/svg11.dtd">
<svg version="1.1" xmlns="http://www.w3.org/2000/svg" xmlns:xlink="http://www.w3.org/1999/xlink" x="0px" y="0px" viewBox="0 0 1000 1000" enable-background="new 0 0 1000 1000" xml:space="preserve">
<metadata> Svg Vector Icons : http://www.onlinewebfonts.com/icon </metadata>
<g><path d="M914.6,971.2H85.4c-41.6,0-75.4-33.8-75.4-75.4V292.7c0-29.9,14.2-68.1,33.7-90.9L169,56.1c13.8-16.1,38.3-27.3,59.7-27.3h530.5c20.8,0,45.3,10.7,59.4,26l135.7,146.8C975,224,990,262.3,990,292.7v603.1C990,937.3,956.2,971.2,914.6,971.2z M758.2,104.2l-529.6,0c-0.1,0.1-2.4,1.2-3.4,1.9L100.9,250.9c-7.8,9.1-15.5,29.8-15.5,41.7v603.1h829.3l0-603.1c0-11.4-7.9-31.5-15.7-39.9L763.2,106C762.7,105.7,759.7,104.4,758.2,104.2z"/><path d="M481.2,292.7H52.6c-15.6,0-28.3-12.6-28.3-28.3c0-15.6,12.6-28.3,28.3-28.3h428.5c15.6,0,28.3,12.6,28.3,28.3C509.4,280,496.8,292.7,481.2,292.7z"/><path d="M952.3,292.7H575.4c-15.6,0-28.3-12.6-28.3-28.3c0-15.6,12.7-28.3,28.3-28.3h376.9c15.6,0,28.3,12.6,28.3,28.3C980.6,280,967.9,292.7,952.3,292.7z"/><path d="M679,415.2H321V283.3l83.4-245.1h191.2L679,280V415.2z M377.5,358.7h245v-69.1L555.2,94.8H444.9l-67.4,197.9V358.7z"/><path d="M570.5,839.2H348.1c-0.3-48.6,0-74.5,0-74.5s185.6,0.2,222.4,0c36.8-0.2,74.2-30.7,74.2-74.3c0-64-74.2-74.4-74.2-74.4H422.3l11.8,29.5c21.4,58.8,0.3,51.3,0.3,51.3s-103.6-55.3-139.8-80.4c-36.1-25.3-21.7-51.4,17-79.5c38.7-28.3,85.9-52.5,110.7-69.6c24.7-17.3,16.8,14,11.8,33c-5.2,19.1-11.8,41.2-11.8,41.2h148.2c153.2,0,148.3,148.9,148.3,148.9C721,841.8,570.5,839.2,570.5,839.2L570.5,839.2z"/></g>
</svg>